<?xml version="1.0" standalone="no"?>
<!DOCTYPE svg PUBLIC "-//W3C//DTD SVG 20010904//EN"
 "http://www.w3.org/TR/2001/REC-SVG-20010904/DTD/svg10.dtd">
<svg version="1.0" xmlns="http://www.w3.org/2000/svg"
 width="16.000000pt" height="16.000000pt" viewBox="0 0 16.000000 16.000000"
 preserveAspectRatio="xMidYMid meet">
<metadata>
Created by potrace 1.11, written by Peter Selinger 2001-2013
</metadata>
<g transform="translate(0.000000,16.000000) scale(0.005333,-0.005333)"
fill="#000000" stroke="none">
<path d="M0 1500 l0 -1500 1500 0 1500 0 0 1500 0 1500 -1500 0 -1500 0 0
-1500z m1139 651 c191 -59 301 -214 301 -423 l0 -68 -124 0 c-87 0 -127 4
-134 13 -6 6 -15 38 -21 70 -13 72 -42 114 -95 138 -50 23 -77 23 -143 4 -133
-40 -230 -210 -249 -438 -11 -135 30 -270 97 -318 43 -31 116 -43 169 -29 67
18 144 100 167 180 l18 60 130 -2 130 -3 -1 -40 c-1 -51 -51 -175 -104 -258
-93 -148 -217 -217 -392 -217 -189 0 -329 72 -412 213 -105 178 -110 495 -12
739 78 192 228 337 397 382 78 21 205 20 278 -3z m1134 -40 c120 -47 201 -136
244 -266 49 -151 32 -428 -37 -603 -80 -198 -227 -333 -411 -377 -85 -20 -601
-22 -616 -2 -7 8 26 214 103 642 62 347 114 631 114 633 0 2 123 2 273 0 256
-3 275 -5 330 -27z"/>
<path d="M1900 1866 c0 -3 -29 -167 -65 -365 -36 -198 -65 -365 -65 -372 0
-21 216 -7 272 18 99 45 176 149 209 283 18 72 18 243 0 295 -7 22 -24 55 -38
73 -39 53 -75 65 -200 70 -62 2 -113 2 -113 -2z"/>
</g>
</svg>
